<svg xmlns="http://www.w3.org/2000/svg" version="1.1" xmlns:xlink="http://www.w3.org/1999/xlink" xmlns:svgjs="http://svgjs.dev/svgjs" width="128" height="128" viewBox="0 0 128 128"><g transform="matrix(0.8046875,0,0,0.8046875,12.367570060510715,4.754620230263157)"><svg viewBox="0 0 82 95" data-background-color="#28292b" preserveAspectRatio="xMidYMid meet" height="148" width="128" xmlns="http://www.w3.org/2000/svg" xmlns:xlink="http://www.w3.org/1999/xlink"><g id="tight-bounds" transform="matrix(1,0,0,1,0.10542966056428327,-0.24049999999999727)"><svg viewBox="0 0 81.78914067887143 95.481" height="95.481" width="81.78914067887143"><g><svg viewBox="0 0 81.78914067887143 95.481" height="95.481" width="81.78914067887143"><g><svg viewBox="0 0 81.78914067887143 95.481" height="95.481" width="81.78914067887143"><g id="textblocktransform"><svg viewBox="0 0 81.78914067887143 95.481" height="95.481" width="81.78914067887143" id="textblock"><g><svg viewBox="0 0 81.78914067887143 95.481" height="95.481" width="81.78914067887143"><g><svg viewBox="0 0 81.78914067887143 95.481" height="95.481" width="81.78914067887143"><g><svg xmlns="http://www.w3.org/2000/svg" xmlns:xlink="http://www.w3.org/1999/xlink" version="1.1" x="0" y="0" viewBox="9.868026402185722 3.423773444642954 80.7809735978143 94.3040613469291" enable-background="new 0 0 100 100" xml:space="preserve" height="95.481" width="81.78914067887143" class="icon-icon-0" data-fill-palette-color="accent" id="icon-0"><path d="M82.423 52.607c-6.628 0.445-9.798 6.401-9.798 6.401s3.105 1.262 4.45 3.554c1.584 2.699 0.992 6.82 0.992 6.82s-1.84-5.427-4.995-7.557c-3.585-2.42-7.917-2.955-10.629-3.105-6.916-0.385-12.421 0.915-15.849 2.882-6.532 3.746-11.143 12.199-11.143 12.199s-0.384-2.786 0.384-3.938c2.113-3.17 5.283-6.82 5.283-6.82s-0.641-8.552-1.986-10.569c-1.345-2.017-7.685-10.213-7.685-12.807 0-2.594 1.447-16.447 0.192-17.13-6.964-3.794-2.306-4.61-2.306-4.61s3.458 5.028 4.419 5.22c0.96 0.192 3.938-1.057 4.995-1.152 1.057-0.096 5.732 1.409 6.404 0.641s1.89-1.665 2.178-1.665 0.543-1.921-0.129-2.305 2.915-4.27 3.074-5.379c0.288-2.017-7.844-7.46-9.861-9.094-2.017-1.633-3.203-0.256-5.379 0.384-2.403 0.707-9.99 3.458-9.99 3.458-2.881 1.599-3.587 1.921-6.147 9.993-0.882 2.784-5.124 33.557-5.893 36.374-0.769 2.816-3.587 14.345-3.074 19.211s3.587 8.965 4.355 11.271c0.769 2.305 0.51 6.914 1.024 8.196 0.513 1.281 6.147 1.793 9.99 1.024s19.468 4.098 27.92 3.586c6.625-0.402 25.835-5.012 33.844-6.393 2.211-0.38 3.586 0.758 3.586 0.758l-0.032-37.398C90.619 54.656 85.5 52.4 82.423 52.607zM24.148 60.803c-0.256 3.585 1.537 11.783 1.537 11.783s-2.817-4.612-3.074-11.016c-0.257-6.402 2.05-11.782 2.05-11.782s0 2.305 0.769 3.33C26.199 54.142 24.405 57.217 24.148 60.803zM57.833 80.908c-8.069 0.257-13.32-6.275-13.32-6.275s8.839 3.715 13.961 2.946S70 74.89 70 74.89 65.901 80.651 57.833 80.908z" fill="#395adb" data-fill-palette-color="accent"></path></svg></g></svg></g></svg></g></svg></g></svg></g><g></g></svg></g><defs></defs></svg><rect width="81.78914067887143" height="95.481" fill="none" stroke="none" visibility="hidden"></rect></g></svg></g></svg>