<svg width="1024" height="1024" viewBox="0 0 1024 1024" fill="none" xmlns="http://www.w3.org/2000/svg">
<rect width="1024" height="1024" fill="#28292B"/>
<g clip-path="url(#clip0_80409_74)">
<g clip-path="url(#clip1_80409_74)">
<g clip-path="url(#clip2_80409_74)">
<g clip-path="url(#clip3_80409_74)">
<g clip-path="url(#clip4_80409_74)">
<g clip-path="url(#clip5_80409_74)">
<g clip-path="url(#clip6_80409_74)">
<g clip-path="url(#clip7_80409_74)">
<path d="M716.282 526.921C674.153 529.749 654.004 567.607 654.004 567.607C654.004 567.607 673.74 575.629 682.289 590.197C692.357 607.353 688.594 633.547 688.594 633.547C688.594 633.547 676.899 599.051 656.845 585.512C634.058 570.13 606.523 566.73 589.284 565.776C545.325 563.329 510.334 571.592 488.544 584.095C447.025 607.906 417.717 661.635 417.717 661.635C417.717 661.635 415.276 643.926 420.158 636.604C433.588 616.455 453.738 593.254 453.738 593.254C453.738 593.254 449.663 538.896 441.114 526.075C432.565 513.255 392.267 461.159 392.267 444.671C392.267 428.183 401.464 340.13 393.487 335.789C349.222 311.673 378.829 306.486 378.829 306.486C378.829 306.486 400.809 338.446 406.918 339.666C413.02 340.886 431.949 332.947 438.667 332.344C445.386 331.733 475.101 341.3 479.372 336.418C483.644 331.536 491.386 325.835 493.216 325.835C495.047 325.835 496.668 313.625 492.396 311.184C488.125 308.743 510.925 284.043 511.935 276.994C513.766 264.173 462.077 229.576 449.257 219.19C436.436 208.81 428.898 217.563 415.066 221.631C399.792 226.125 351.568 243.611 351.568 243.611C333.255 253.774 328.768 255.821 312.496 307.128C306.89 324.824 279.926 520.425 275.038 538.33C270.151 556.229 252.239 629.51 255.499 660.44C258.76 691.369 278.299 717.423 283.181 732.081C288.069 746.732 286.422 776.028 289.69 784.177C292.95 792.319 328.761 795.573 353.188 790.685C377.615 785.797 476.932 816.733 530.654 813.479C572.765 810.924 694.868 781.621 745.775 772.843C759.829 770.428 768.568 777.661 768.568 777.661L768.365 539.951C768.378 539.945 735.84 525.605 716.282 526.921ZM345.872 579.016C344.245 601.804 355.642 653.912 355.642 653.912C355.642 653.912 337.736 624.597 336.103 583.892C334.469 543.199 349.133 509.002 349.133 509.002C349.133 509.002 349.133 523.654 354.021 530.169C358.909 536.678 347.506 556.223 345.872 579.016ZM559.982 706.809C508.694 708.442 475.317 666.923 475.317 666.923C475.317 666.923 531.5 690.537 564.056 685.649C596.613 680.761 637.318 668.557 637.318 668.557C637.318 668.557 611.264 705.175 559.982 706.809Z" fill="#395ADB"/>
</g>
</g>
</g>
</g>
</g>
</g>
</g>
</g>
<defs>
<clipPath id="clip0_80409_74">
<rect width="515.805" height="596.399" fill="white" transform="translate(253.935 215.81)"/>
</clipPath>
<clipPath id="clip1_80409_74">
<rect width="513.463" height="599.419" fill="white" transform="translate(255.105 214.301)"/>
</clipPath>
<clipPath id="clip2_80409_74">
<rect width="513.463" height="599.419" fill="white" transform="translate(255.105 214.301)"/>
</clipPath>
<clipPath id="clip3_80409_74">
<rect width="513.463" height="599.419" fill="white" transform="translate(255.105 214.301)"/>
</clipPath>
<clipPath id="clip4_80409_74">
<rect width="513.463" height="599.419" fill="white" transform="translate(255.105 214.301)"/>
</clipPath>
<clipPath id="clip5_80409_74">
<rect width="513.463" height="599.419" fill="white" transform="translate(255.105 214.301)"/>
</clipPath>
<clipPath id="clip6_80409_74">
<rect width="513.463" height="599.419" fill="white" transform="translate(255.105 214.301)"/>
</clipPath>
<clipPath id="clip7_80409_74">
<rect width="513.463" height="599.419" fill="white" transform="translate(255.105 214.301)"/>
</clipPath>
</defs>
</svg>
